<mxfile host="app.diagrams.net" agent="Mozilla/5.0 (Windows NT 10.0; Win64; x64; rv:129.0) Gecko/20100101 Firefox/129.0" version="24.7.7" pages="2">
  <diagram name="Page-1" id="fDzduQw4UeUUurZnWD7_">
    <mxGraphModel dx="1050" dy="538" grid="1" gridSize="10" guides="1" tooltips="1" connect="1" arrows="1" fold="1" page="1" pageScale="1" pageWidth="850" pageHeight="1100" math="0" shadow="0">
      <root>
        <mxCell id="0" />
        <mxCell id="1" parent="0" />
        <mxCell id="pSzr6RmVqyNmgObaIaFh-28" value="" style="sketch=0;aspect=fixed;pointerEvents=1;shadow=0;dashed=0;html=1;strokeColor=none;labelPosition=center;verticalLabelPosition=bottom;verticalAlign=top;align=center;fillColor=#00188D;shape=mxgraph.azure.computer" vertex="1" parent="1">
          <mxGeometry x="550" y="110" width="80" height="72" as="geometry" />
        </mxCell>
        <mxCell id="pSzr6RmVqyNmgObaIaFh-1" value="&lt;div align=&quot;center&quot;&gt;Windows Machine&lt;/div&gt;" style="rounded=0;whiteSpace=wrap;html=1;align=center;" vertex="1" parent="1">
          <mxGeometry x="310" y="160" width="250" height="240" as="geometry" />
        </mxCell>
        <mxCell id="pSzr6RmVqyNmgObaIaFh-2" value="&lt;div style=&quot;&quot;&gt;&lt;font style=&quot;font-size: 18px;&quot;&gt;CrowdStrike&lt;/font&gt;&lt;/div&gt;&lt;div style=&quot;&quot;&gt;&lt;font style=&quot;font-size: 18px;&quot;&gt;&lt;font style=&quot;font-size: 18px;&quot;&gt;systems&lt;/font&gt;&lt;br&gt;&lt;/font&gt;&lt;/div&gt;" style="html=1;verticalLabelPosition=middle;align=center;labelBackgroundColor=none;verticalAlign=middle;strokeWidth=2;strokeColor=#0080F0;shadow=0;dashed=0;shape=mxgraph.ios7.icons.cloud;labelPosition=center;fontFamily=Comic Sans MS;fontSize=18;fillColor=none;" vertex="1" parent="1">
          <mxGeometry x="140" y="40" width="190" height="90" as="geometry" />
        </mxCell>
        <mxCell id="pSzr6RmVqyNmgObaIaFh-4" value="" style="sketch=0;aspect=fixed;pointerEvents=1;shadow=0;dashed=0;html=1;strokeColor=none;labelPosition=center;verticalLabelPosition=bottom;verticalAlign=top;align=center;fillColor=#00188D;shape=mxgraph.azure.code_file" vertex="1" parent="1">
          <mxGeometry x="206.8" y="116" width="56.4" height="60" as="geometry" />
        </mxCell>
        <mxCell id="pSzr6RmVqyNmgObaIaFh-5" value="&lt;font style=&quot;font-size: 25px;&quot;&gt;Hardware&lt;/font&gt;" style="rounded=1;whiteSpace=wrap;html=1;labelBackgroundColor=none;fillColor=#e51400;strokeColor=#B20000;fontColor=#ffffff;" vertex="1" parent="1">
          <mxGeometry x="320" y="330" width="230" height="60" as="geometry" />
        </mxCell>
        <mxCell id="pSzr6RmVqyNmgObaIaFh-6" value="&lt;font style=&quot;font-size: 25px;&quot;&gt;Kernel&lt;/font&gt;" style="rounded=1;whiteSpace=wrap;html=1;labelBackgroundColor=none;fillColor=#1ba1e2;strokeColor=#006EAF;fontColor=#ffffff;" vertex="1" parent="1">
          <mxGeometry x="320" y="250" width="230" height="60" as="geometry" />
        </mxCell>
        <mxCell id="pSzr6RmVqyNmgObaIaFh-7" value="&lt;font style=&quot;font-size: 25px;&quot;&gt;User Application&lt;/font&gt;" style="rounded=1;whiteSpace=wrap;html=1;labelBackgroundColor=none;fillColor=#008a00;strokeColor=#005700;fontColor=#ffffff;" vertex="1" parent="1">
          <mxGeometry x="320" y="170" width="230" height="60" as="geometry" />
        </mxCell>
        <mxCell id="pSzr6RmVqyNmgObaIaFh-8" value="" style="shape=flexArrow;endArrow=classic;startArrow=classic;html=1;rounded=0;fillColor=#000000;" edge="1" parent="1">
          <mxGeometry width="100" height="100" relative="1" as="geometry">
            <mxPoint x="434.50000000000006" y="263.2" as="sourcePoint" />
            <mxPoint x="434.50000000000006" y="213.2" as="targetPoint" />
          </mxGeometry>
        </mxCell>
        <mxCell id="pSzr6RmVqyNmgObaIaFh-10" value="" style="shape=flexArrow;endArrow=classic;startArrow=classic;html=1;rounded=0;fillColor=#000000;" edge="1" parent="1">
          <mxGeometry width="100" height="100" relative="1" as="geometry">
            <mxPoint x="434.58000000000004" y="350" as="sourcePoint" />
            <mxPoint x="434.58000000000004" y="300" as="targetPoint" />
          </mxGeometry>
        </mxCell>
        <mxCell id="pSzr6RmVqyNmgObaIaFh-14" value="" style="endArrow=classic;html=1;rounded=0;strokeWidth=6;dashed=1;dashPattern=1 1;entryX=0;entryY=0.25;entryDx=0;entryDy=0;exitX=0.674;exitY=1.05;exitDx=0;exitDy=0;exitPerimeter=0;" edge="1" parent="1" source="pSzr6RmVqyNmgObaIaFh-4">
          <mxGeometry width="50" height="50" relative="1" as="geometry">
            <mxPoint x="250" y="110" as="sourcePoint" />
            <mxPoint x="330" y="265" as="targetPoint" />
          </mxGeometry>
        </mxCell>
        <mxCell id="pSzr6RmVqyNmgObaIaFh-17" value="&lt;font style=&quot;font-size: 20px;&quot;&gt;Windows Machine&lt;/font&gt;" style="text;html=1;align=center;verticalAlign=middle;resizable=0;points=[];autosize=1;strokeColor=none;fillColor=none;" vertex="1" parent="1">
          <mxGeometry x="340" y="400" width="190" height="40" as="geometry" />
        </mxCell>
        <mxCell id="pSzr6RmVqyNmgObaIaFh-20" value="" style="image;html=1;image=img/lib/clip_art/computers/Software_128x128.png" vertex="1" parent="1">
          <mxGeometry x="330" y="255" width="60" height="50" as="geometry" />
        </mxCell>
        <mxCell id="pSzr6RmVqyNmgObaIaFh-24" value="" style="shadow=0;dashed=0;html=1;strokeColor=none;fillColor=#4495D1;labelPosition=center;verticalLabelPosition=bottom;verticalAlign=top;align=center;outlineConnect=0;shape=mxgraph.veeam.2d.alert;" vertex="1" parent="1">
          <mxGeometry x="450" y="210" width="33.2" height="33.2" as="geometry" />
        </mxCell>
        <mxCell id="pSzr6RmVqyNmgObaIaFh-27" value="" style="shape=image;verticalLabelPosition=bottom;labelBackgroundColor=default;verticalAlign=top;aspect=fixed;imageAspect=0;image=data:image/jpeg,/9j/4AAQSkZJRgABAQEAYABgAAD/2wCEAAICAgICAgICAgIDAwIDAwQDAwMDBAYEBAQEBAYJBQYFBQYFCQgJBwcHCQgOCwkJCw4QDQwNEBMRERMYFxgfHyoBAgICAgICAgICAgMDAgMDBAMDAwMEBgQEBAQEBgkFBgUFBgUJCAkHBwcJCA4LCQkLDhANDA0QExERExgXGB8fKv/CABEIAcIDIAMBIgACEQEDEQH/xAAdAAEAAgIDAQEAAAAAAAAAAAAABQYEBwMICQIB/9oACAEBAAAAAOs4AAAAAAAAAAAAAAAAAAAAAAAAAAAAAAAAAAAAAAAAAAAAAAAAAAAAAAAAAAAAAAAAAAAAAAAAAAAAAAAAAAAAAAAAAAAAAAAAAAAAAAAAAAAAAAAAAAAAAAAAAAAAAAAAAAAAAAAAAAAAAAAAAAAAAAAAAAAAAAAAAAAAAAAAAAAAAAAAAAAAAAAAAAAAAAAAAAAAAAAAAAAAAAAAAAAAAAAAAAAAAAAAAAAAAAAAAAAAC31AAAAAAAAAAAAAAAAA9UOkuiQAAAAAAAAAAAAAAAbfr0L6/eLoAAAAAAAAAAAAAAAO8uvOrvtt4r4IAAAAAAAAAAAAAAAD1r85NXgAAAAAAAAAAAAAAAPXHza1mAAAAAAAAAAAAAAAHYuqaf8Ab/xJxgAAAAAAAAAAAAAAA7cUfXfqj45AAAAAAAAAAAAAAAAPVvz01eAAAAAAAAAAAAAAAAAAAAAAAAAAAAAAAAAAAAAAAAAAAAAAAAAAAAH7+B+/gAAAAAAAAAAANybIplEn9vyfXGbxMrhnJKUpslV5KwZtprdJ2pQaH2t01h0LZ/Ds3VlNtsdBWjOmcWxQMXk6U3PctU26W1zPzVJlYbUwAAAAAAZu8uPk1/yZWDk2qmbNptkUDc8Nm/Vdom2ajkbG6m75rOw9Cbwh8ml4Fy4JXiiprkkY3X1/1zt+ryfHzc3JTbrV4rVIAAAAAAXi+aLAAbIqkfhA2br3ECSzJKn3Cn5GOJiHFvqshFCYh5iHAAAAAABZezUdYrJpuL33BdVO4FG0X2QiJaTsNDwdF9p4aNnsavWrXej+0sxAdeu2XWnaF5gvjrh2Py65RNwQkxeuincLTOduCh88xe+h0IAAAAAAHLJ4tnr03wYsnU5aYpl5u+tcnGlPyp7k11FZmXC3TYnXm3QszVbFXbZ+cXPT5CdjI37sP3zUS6xMdZ+PDz4bLrIAAAAAAb+y4TH+KTZcrHztedndJx1/0CAAAAAAAAAAAAABtuak8iU1Jtim2rM6udvMf90BRwAAAAAAAAAAAAACyVuegZ6BBPQIAAAAAAAAAAAAAAAAAAAAAAAAAAAAAAAAAAAAAAAAAAAAAAAAAAAAAAAAAAAAAAAAAAAAAAAAAAAAAAAALRgc+X94T74eb9jczDz8bJzYmT+MOR4uHPg5fF4v3Jhpj8l6hggAAAAAAAAAEtMcmBNQn398+Bn4crgZsTZYPCzsjFmatn8fHI80hh4XB98EhFwIAAAAAAAAAAAAAAAAAAAAAAAAAAAAAAAAAAAAAAAAAAAAAAAAAAAAAAAAAAAAAAAAAAAAAAAAAAAAAAAAAAAAAAAAAAAAAAAAAAAAAAAAAAAAAAAAAAAAAAAAAAAAAAAAAAAAAAAAAAAAAAAAAAAAAAAAAAAAAAAAAAAAAAAAAAAAAAAAAAAAAAAAAAAAAAAAAAAAAAAAAAAAAAAAAAAAAAAAAAAAAAAAAAAAAAAAAAAAAAAAAAAAAAAAAAAAAAAAAAAAAAAAAAAAAAAAAAAAAAAAAAAAAAAAAH//xAAcAQEAAgMBAQEAAAAAAAAAAAAAAgMBBAUGBwj/2gAIAQIQAAAA/ZAAAAAAAAAAAAAAAAAAAAAAAAAAAAAAAAAAAAAAAAAAAAAAAAAAAAAAAAAAAADy/qAAAAAAAAeU4n0XIAAAAAAAPDes3QAAAAAAA8pw/o2QAAAAAAAed9EAAAAAAAAAAAAAAAA85GeLMUSpjmWvvVbXN6mvmmja2uXfGU+xvgAAPOTxLY09vV5/Q2NbW2ely9qmmzc076Z4Y1vUSAAAcbN0M1X1b8VmMV2yzUursqnHOFkwAAHO1bIY2+d3LQAAAAAAAAAAAAAAAAAAAAAABpRjLOY5qtjGWYSnVvWAAAAAAAAAAAAAAAAAAAAAAAAAAAAAAAAAAAAAAAAAAAAAAAAAAAAAAAAAAAAAAAAAAAAAAAAAAAAAAP/EABsBAQADAQEBAQAAAAAAAAAAAAABAgMEBQYI/9oACAEDEAAAAPyuAAAAAAAAAAAAAAAAAAAAAAAAAAAAAAAAAAAAAAAAAAAAAAAAAAAAAAAAAAAA+g+fAAAAAAAB9H63w8AAAAAAAA+v+a5QAAAAAAA+j9f4aAAAAAAAAe54YAAAAAAAAAAAAAAAD27VUnaNJiNuTXn7fP3abc/P35WrXy+QAAB7cIw6ubfu4sN98eD0ebXWnJ1460mW/gVAAAepGV40w147KJ0yiNGV6a0tW0VoAAA7t6Wnn7fJzAAAAAAAAAAAAAAAAAAAAAAAHTaaib52mq0Vvy0AAAAAAAAAAAAAAAAAAAAAAAAAAAAAAAAAAAAAAAAAAAAAAAAAAAAAAAAAAAAAAAAAAAAAAAAAAAAAAf/EADQQAAMAAQQBAgQDBgYDAAAAAAECAwQAERITFAUhIiMxQSAkYBAVMjNQYQZDUVKAoDA0Qv/aAAgBAQABDAP/AKyBx7qvNouE/UfomYLI3p+R7j1HDOFktP8Ay/1BiYORmlhBdZONbEp1WXZo1aFZ1T+L1ea5vpy5SfX9Qej+pywRWdlPD1XOXOurTXaevRWGR6YYvpl4syn6/qL/AA2flZK6zRtmZQ/Uf+G1+TktrNPLMyj+oMD022fz4EKmbhVwa9Vff9npIGJ6V3Ponckn6/p/0z1Q4HYhnyn6jntn2FOPFcaDZN5wX6+uXXGw0xJ/X9RelShgY75uQ69mZlPmXez/API3D4O7Y9NtnxlVfHYhdLhrU45jUmaw5Jkvy1k488fZe7lXFW/hFsaIelEgj5WQJoTXJrZeNOO0pu+PTZwFyYzgxmHc0jjo8XvWvBPG+ZiJz14s1nStbEL4I7LKb/LljfOw2x7fCuPLole1yoOF1tkd1dpZEFksHSvNEx5eOmRWxVfB+Om9PkjA3ddq7Sh0Txs2kr0Dfu//AC+beR48pzm16lX6sdP3Y02bnkw96WU76tIRu0S+4yBvXqjduK4ktsbsyCCuH8LvZmC5ETj1aRO+v3eezJQU9kx2STsKe6yx55HpRkzcq48yuTSduTY0Bc13pwHh8/H8enJTjyZKtCxc40PIagNOA8VHWTxqShw59tJi/tCCduJeNC0640nfK67b1rj99I++yDA5vALUifjY/SMjyW6vB2pkBqHrITnsrHr8Bt8wc9QgqTylemqY816HWpMThzXx6Fn6aYkTfM4O3SkJkVqakY/hc3j1U3iMAU6+urcZYj1VCDs9MRRN6SozDLx541GiLc6f0lTswOvLRr5jOh6RlJHoWCsVa+MsspIrTfJqL17ANh3DxfH298e4l2JROUa+Lt8jt5JZRCkWB1fJR4JBTR9CoGK8NvdMnH/KPVX7KZAeLz2O7Zant+E6jlrLw91OnqGx4R29zkJkeUGlTpzuKzwphSuh0/u+Atz0M8c6jZ1j5Sq7nlVwlQuPeO3vXNWw5ml1o1oWnLuDioyJcMPcN2Yttmzchk+STudz9Tlr3UrxOxyFPh+x15qsLIzVRatzdmBYjz9lw9k+JstS+WQp4jKlvg0IbsW4CZa7ahYSF9xqOZ0pjALue7Hklhjh+Xp/Hlk8xuvkxkspxDlEyVFskspMlyYx6UkHKHIx18h4q/YucA49mCDKRLI/O1F7h4vRt7nJm1+7lWZyai96VC8R54/KfAdNlhmzTxOoZiS8UFTquUhlKadjE3gcmmQlLzL5cbHIWkyskzVk8RNW6K3HwddrsaZ/5mN5T4pa6MNkrkNq1ZXycizhuP8ASYx7jt2zQ+CRbo75l/8AzMK43UyVIKh7UCjdqHf+E/jE3OPNjXaRGxI33/Ei82VdVTqpSR+pid68CHXSRLytXf20CR9D+Hrfr7dvg/BCRvacQdj/AG06NN2m42f8BR1VHI+HSI9WCIN2/pUf50tS9vWLnU28nHHkbayqxHlxYudEinqSYzAdGRaVIFeTvXF3nKmR2lEttGnqTqgDLRJQxamjBrcDenWpE6uXy/UcchelnpE4U8dR15SomVdZ/wAtp/n/AFL4PhelpT9O6FGr7Yy5dMXYGq0euNQnrKt8/wBIspO8mHVl5DuRbyMbuZxzXWWjpd1owZi1Vy8GKIOodOPjq86smnqiQy64ycNEfE+QFHejUrDAa3vpnMcfIaewdhsb5CKO+/ZbCxGZN6wm1bSku3KvGmJVi7UNXL5XqWOQvSGpKnp8oL8vM/8AbytNRpW9WE/YYKrTLkHG+lre2FnmvuN2HqCYaqPEQyx8XHdaMupUkz1jj7weakZKK31ehq/qkWA6+Tzy8bGko8elCuA6Tb5WCdjlNsCYccr93tke5akLDqq7s2VSI8uDczqTUn6nHGmv5eTFKoy/WzMcn1Sn1rYmuHK1f50aGOBSibdgeGOMNSX6pMKw6IP10c2vH0yIYattTDyCXah76D1Zopss2LuTRv6V9PcfXsfmaczz5NxKbni2TkOnW9nKF3Lcyx50yL227as+p2tHfqqyaNaHlvRjqeReIIlZ1H9/v2U5M/NuSZF5rwSzqmjk5BUIbvwfNpwgkKOmp2rEkyoynyL8xTufm1rOQz1YnycjsNe5+wZOQHagu/NmZiWYktfNo+yypRZzvaO/VVk0XcgguSBaqsrijBmvdyC1nJLuQQWO0a7U5PeqGmb/ACetmfQJB3H1fIvT+ZZ212U5M3NuS5F0TrSzhCSxLMdyL2VzVat2bnflv7vk5FfalnYeRfr6u5+ueReO4lVlC5OQgYJZwNyDuPrzfdzzO4yLqnUtnE1rRFdFchAzLvxYjXNtgvI8aZF7ACtnYNk5Dp1tZygyslVVBegXXk5Bdadz86VpU8quWPJuPDkeKZORNOtLOqeRfr6e5+ruqE6xRut8jIr7Us7Dspz7ebdjWq+4ejEf0n06fZS3yxRmx7XuJPKcHGNt0UlRKL425tStFnNsNx2bOpDyKTjQnXiOXxkUg6GMvEUpdUR8Sk/I5EanhvQ46hl1RVRtkoHGJiKmVNK1Tthjrfiveq0bHdUR/rqkFjj5KnY0/SuHSc2r2khZvjQdilHcYlARjw9+b1jQWhRiupXD5eJOQJll0Wljw/lQrwwaOw+PnC0ITq7Ixyo1OSj8kmMrHR8TjzKaGTieX5pZ+WNmSkmN82k9Ytl/OUYbz5/JopoeX6XnasuXW5X9iVpPlwcr+xq0cIrOSv4u2nWJcz1/85knz3O/sJufoNdbb7Ea6iOO+jF/bQk5B0Jtuw+/VT29tddBv8OuqhG+3t00/wBuijKdjrqf/brg2+23v1OfoN9cG3I11P8ATbQi5Kj6a6234/fpf7jbXTT/AE11n4h9+int7DQkxYKfbXU/v7aEHKhhtooVAJ+hhUf/ADrqf/TXW+jJ1+o0siy8tcfhDaE/h5b+ySNNuOug7Kd9bfCG/QAcgEDXbsqqPp3v/bc0Pt7Aa8imhQjl99drAkjbXa3v7Ag3cgr9uxhtruf7bAvTs/i01yTvto1YlTsNd7AcVAAFCDy+/lU35fftb29hoOf7Edz776F3DcvuKsGL/fyab765tvy+5qxBHtoVYBRo0LLx0LuG5ffvb/TXeT8L/wAFLtTcH+FbUXYA/DzBGxmNuzb6LrntyCbgdzE7kDcvuvHgP+2d/8QAPhAAAQMDAQUEBwcCBQUAAAAAAQACEQMSITETIkFRYRBxgZEEMlJgobHRFCAjQlBicjPBc4CSoOEwU6Lw8f/aAAgBAQANPwP/AGyHtFpj3kjcni3i1HeYenvC3UnAWvemmQmgVB/E6+8LjdLeaaIE6nsBdT8D/wDUDHvHcCtq/wCfvHeB5Lav+fvA3VxREtI4jsN1Uo+8Ds9QU0Q0Jx+CfAjkxvvGW6TkN+pR0HIcv8xtYWhx/K/8pVJu19JfEmXYDQqlXZS5sFru5Uo8ZMKGui3EOErbwdwPxHVUmU/wx6m1fr4BTOGBvyW1ptgji6cymmHXMtHhlNeG4bJM8lWDTppcYTa2y3WySmUhWD41aY+qqk2uczILdZCe5zYa2TuqkQ25okuLtICqguGIiDCLyy1rZOPJNY2pe0SS1+kDmnUnVQ5zYO5qCFuND7IOfHirL7bN3S6Luae25rWtux1yE8gnd1345o+kPplvI8PNNMOcB5pnot1pbugbOcfyVcboDZjNucptQ0txt5LhryQjPQ5VJl7THr4uHmEfRtq5tvC6ITtmTLdd7XVUnb4tgZMbpTKZqExOiqkt3hbaW6zqqYlwc23GkjKbTNQnXROqik65sFpKpBxrOtwIxjmvtDGOuFpB+Kp3PLbd2BrBTfRKb3mJxCqh+89sEFgkyFdYdzeu6ZVJrXyxsuIdphcyM+Soafv4/LKd6K2o7Hqy4FVZyW7wjXCe+w3MtdjpKok3AMkjeiBnTqmkNm3ecTwhVGufeREBnrSE9xp77LTfEjjxT6uyY35nwTHBrrmW68QmuIduwP0oFekEyB6wzcFTqisS/VxHcq0etG7BmFawf6W2ra7SfCFUEPGhxoR3Kfzxp4J1Rjscmz9U10h9XUD2QjUa+e4Ef3VCBDdHAGQjXNXwKd6Myh4tjPwVF73HrcmOeZ/lH0Tyx0syWuaITaZw7XLuK21SCzuHNOptptsO+0M0KNF9OahzLk8sP+lWwWNO5MRKpss3IhwGncqB8CLrl/VE/wDcDtzsd6PsfGyxUWweu9cjWdVa6nrvcCubzJVMjafvDcD4KpS2TByAiPkqFoI4FrTcqoEdN65PpGn5qnUe89Q8AQqgt343W68NV9nfMIVRVeXam3gq1wcBrBMptZtZ5dqbeCqgth2jQ7XvR9HbQdaYdu8Qg14/EPtCMLa7SfCEGMa009d1sJ3BM/q/vxZ8lWba3oARHyVPaSR+/iO5Mq7S6pxTjfLYkE6hVHioLNWuGPimMezWHG/U9E1134h0VM3WdXGXKZiocD6p9zmgczpP6V+/jK35tkxYJ/69SnfumOieY7yUOH3zVsg6A81zH3iYTXFvkmCS5ukePZTj4mPv3Wz1+64xPY0wR1+6/LesY7Dw/S7wr6/yKHpNNt2kNfMhDDGbINFMg85QhwYBq6yfFB+HOphkDi3BKuDNxtzideOiFKi4SNHOjMKoXOqW0g+8zoZI8lebQeAQZVIbGhaJlPpsMRO0c7WUKjg3ulCnWPdjCfT9n1zccFfadncPyt5BM9D2jzbOJOg5p77S97QC4XIVGsvawOLW57oTqTW7awSH+1b1WDcOMiU+nRubbh4IzKdWqAubTD/V0GSEfSWWy3LZadOS+xsqjH5jguhH0zWPWGF9rIujIEcF9lpVBji6LnQnVagBAy7TzTnACdEyswBzmBmsyBCDKpDY0LeKe1jjibydZW1f80KYcMdWrJg8SBICGzzERvaLdFsYLCPW/wCU9z7i2mH3QdDJHkqlb8Nxb/4HktqAfNMD3MbHqlruCcKe7GHhwySvtLmD+MIejuIkTlbd7CfaAAIBW1Zl1MU7BxGChhlPZBopkHGZQtgRwiblKpTs8aC7J8FtXNDuLmx/ZbdoDoyN0p1JrnU20g4VJ1zKDXktLcVBrrzhVJGdJvhU6rAHOYGRzDYQc8BoA5Ln+lmd6c5UzHBcicLnxwh7RlHW0wnQHZ1hH2THY6bjOTK5A9kRF3BNpWOgxJkn+6OtphDAdOUMiTojgunKOpnVHUlbJjC2Y9VsFHW0wibjnU800Q0zoEDcJPFE3R15oNhr2ZI6cMJl5vq6lzxE+HDs6nknTcZyZ5rkDhHJJR1dOVrK6laWzhH2TCcZMHj2O9bOvevZnCd6wBwURBjkgZA6r9xleyThDQXadjcB05C6mVMxwlcgV7M4UzbOJXUqZunMom4yeOk/pQouLWnO8tmX6WiBlOq7PTR3UFCoWTGruTQEKYrNj8zNJCqSQOgwqwBafh8E4kMwTdHHHBUrZ636EKs1zhP7Z+i5j/lQS6kR007042taQfinPdTgcHN4JldjLh3GR7rPpOpy0TqnUajMsty4QOJX2tj/AA0QrvqMeBd63AprdhnVzXet8038Nn8W4THFlE/4o3vJUpEht0tJnzT2saw6kbPSVSpVGEkcXT9ewyTTt0cRz5Km6ajWD+pmdUw/aGf4kw35o1A62MHrPuwdY7HCDHY3DRy++DNvD/POOz+2iM/BZ6aGEDBCAla/em3xXQrXsMfFa9oR6qLvDValHTKPZ3rv7LrVJHkolTCJjzUkeXuAVmZ6rQHkBmEJ06rPxMo5Moi2Oi5L6oQfJanqea/95rhPDqgbvE9kQvFDI6KLYUR/daeeUV4qI+EI69UM+S+mF9cqZ4rkpJjvQ4cOamcIYE8EdZyrrh0Uzx/3Z3//xAAsEAEAAgICAQMCBgIDAQAAAAABESEAMUFRYXGBkaGxECBgwdHwUOGAoPEw/9oACAEBAAE/Mv8ArIc3sgLef1JH9N/qFcZblsXL/c/UIUU28E4pp8OQdjiRwf2sOWe0+F+oYQ3ApQVePl+b4v4WKDfyYbckvU/Ua9Y+cf6yLtH3n6j8FfgP95Celj5fqB1Qudl4DKCdCvwFNEPTcfQxt6Fff9QXpcgMAxEb5ZY7c4/WvXJ9jKJghfqMFbTiJ6UYUFadfr/kajMIueST1pwDxGqi7KJ13gUTOQ3YWfF5qRFRH8Hl6mhYDds7xtzBfjdgweiLYS6bgaw8jEE0e5K8ZO8Hkuh0RGO9KWg5skxbq2USvI6xj2W9r79YMC6MuCZJTIRRbzqq4cQ0UQuGSo4cIV4svZV4Fus2YBk2XlvYRPoG28hGH2MjNtLyZcfftJWCVYC47FWsijiQBJMEcxedv+7EuHiMdAMvtRbBOc5EkC6SyiIjGaPKLmn1Yjg3zDoTcOUPOh6Bwlvk8ZvsyxZ8KqyMUgPGlNDNpIANjBj0clEPkEgHWzAklJG5EnU7nFoFNATZNldaxYUotC5JcPgyFJYNCCPrkW4X2dZgGkM5t/2yny2p5wQRKTTPjHRjbAsjlg9AQvtstYOAMp3ZKGjkgc6oJOVcemIGlzIAFHKrhwkTTqJHPGB+tJCiRzOXUJKl1Ezu+sK0pVEh7nE4X0PKnsxCilnRx5Yzo9JVcBK+14jM/RjB8gzucjfpdEl2HbB73LrsE44u8HQIJLiCbPrjzAUqKGJV3yNiCDaEs8GPRKQtlrJiItAjGoZ33/ivBY/GNoGIcsPJlfxWGiIlAYsRuxeDb9ccqor4v2ZyT2iNWT/HldiUd4q2bGIOkSxuufegE9calIxWiiayUbx1ERi8shg3OXW/fCmUt8ERg41V/WjF9VF8OvjBKp/wcjsEaVMZNI5O9LdWZHou4zSonhKRTEN58knZG584Ch4SIKTFwY6lDHgv/OIE03EexQ8kZRBCycgnYyU1ZBH263n02GJHq38YiJKZXF6kBzyvTGHqPTOnzg6mm05nJOCozWk9uAAk8vQvsowKone9ntgs9o0TmQ93jack9AW+MBUYiOFDP0wLBcacfoxRTLsVgg5GN4gqU5QxWsIDR7EoAJgMCOaiDAp5EysMox9QExGO635ndEw+ThYCl/qYb0I2S9UsZZmq6I0Yvr5KxObNxk8cD7CJY5duTq6t+n7OQRgT7kH0IYAn4xNYPLiWAre5geY1j2LgZHOwk85SOpUTaKG15LHInyfNuscuNB3DUAt+cFnYSO/rKYy7sNuRxt92DJpFZO447/xU9eAJpLpA4m6OLkohkOv/ALwsKmyBWDHpkMhRLfkOI3MJ2oefzyJ1LNIWPvhHECnA+SfzQOwnP1rFUSvTmcZBDdzxBOnL+BKILTv8JISEkMcnX5f6G5MflNFB1owFQbaybQHWFP5Y1YKdFL6/heXUei/8X/Q94qAYeHTjZyK8I2hxWbDvp/KBsRXnIpdAa4p1Z4x2HrW8/YBhaarrgwKQyjMg+Z4BvFq64VOfgYTLLQ2Sh9MjAuZCGDzJkvQeEaGe7rxnBOh0xVgjtUG7+MLhNqBpvN6YC0DQTXJ0C/bA9ixKNjTKcshcIaSwn5xUn2NnRbEiciASsUqzJKnGdHNgAA/GaQtxAZ9sV1gWRE7AIuOcqCBCDS8sAr8YhExx0heCxKCUPI76wzoFgsK6YUO0MIIw9s4zCBwjrEDLuqXnEOJ/hyE14yNSRkLYPOGshyMn70a8Z/Rd8aMJgKYsNuV4pz3Dmk0CGThjjxl1O0++N7i8dMPS6GoRhbGKa00b0DkD8OhnbIAWgQBBh9cXPRcaOe9zfGT7RXj1YWpykJEMOABjwwnsFW5WRoLTRMlRxirbu9oANjjzh3uF4ed75nHmgmHIZD4UM8RPDnIzdDQEN9y5wYRKgQkYnJJJERzss8eMkePq259RS8rGFIoQnIQKCiZJBrxhEw0Y3+7k67LDGCfb/FCoSBYmAgtjJLnfnIATQp2TTGEqLutNfGSN6XfQvxhAOsC27vPXJRL4zRoSEw1HuIrGCNKKJ7rFVU9pyZEUJUG0vM4teOeF/gtSIZopEemBM0XAshHjBwUhJL1wAcFYwHicdx8qqvHWRgirGR04OCcT5B3iN0lEq+c4KyoUKh0xlc7kJfGQ6p6nyvN5FLoVIcHjJQSRWOx5xQuaTT+9jBxzZKLOjHENe1oQsQMAkQMibHD0EYkdOn3zidCV2pcznPi5ph6Ctgq8uFwlAKR5cjiV/JPeEKYQjo83gcNXbp1HWEWeIsnusZLgVJW31wAZAyJuc4yqPadvlj2yCDIO684UPYhPUM7yFIlcPjOWAmULk81gxGyCie7wBXZJaa+M0AzkEOvwUCKtYPDlHPgdTrPkC/BMd4gtm+F7wCKhF9HiMBShCFDthisRI6VrPmq3rTh8SukEnyR/igFGHYI1WFDEIkCyd9ZKJNJUUsbg4qBJpRseAMlSLErnY65MHFTkRLPrhDyaaJZT7LwTMvUBwx0wIujrj8Bh+z08RM4rlWtCcL4hKMXbREOsavnYldSCCcrfIN3Mes1n0CflnufpYfvvCPOJMkdsgQ3xGDMT0KwLmwpHRCuqcDfiNVWScYkPSfCn33g+7AWD4D64RhvwHmpAXIXD6asg8m8mSBwFpoTr8HH6sNE7X0z72gemRxUOXrFl4ED32yLqXYwDbab/AExoHYliT8ABuDRJ1+BNhkNDx+dRFES27/5zuYpJM+CecgdMTOiP6ZXicz5NsXBElVf0YKhTs0JOWIoFbEGWeH0xUGtDcyh++RWjJsmt31vG4db+r+2BJu1Z/b4z6CWyvXpvWEDt1ftkpP1V8fGUpbYeHGCoJTFD9s10kJWRHc5abXRJ8evjePctBKems4YpyIjudYU0H/yY6x9DL9GJ9K3gqlAPyhv3z3A4en14yM+e5OHbE5ag2FR303rJGFEAm1P2zigE7u9ZQN9bPT6c5rIXqnUz6ecGBAh5hB69YUscKMpx/wCYWCQiHN8+l4o4D9A/nFa3A27T9siiJdnFT+2D8dasFNvvizgP0D+f0Bqy2+IwR6RRy6VwZRoQIFogPjFLDAB8mE3GhyVJJPOT6CX6g/fCBT0TwzUUYFaY9PTEokhNdprCpixfb983WCIbBn7MRCL7la92JYG55l6OXnIQCtDexfWMH03gn15cLwEQ+1YCZT3Xbvf01huIoV5EH7YJssS0m+M6CenicJilH2KX3zw2GZfrvLFJSGxVdPjFpv4eMSh18pmfpgCi4H1SffCrCCL9GEhSUz7pZbKHvekd4FiO4N+0ke2QgsCTUljqpwWtI7rsnrnORWIk7iZ6wnNQtSy9I7ysIISSpmSjGYu+u1ajisGglEaTE7fH/bO//8QAKxABAAICAgIBAwMEAwEAAAAAAREhADFBUWFxgRBgkSBQoYCxwfAwoNHh/9oACAEBAAE/If8ArIMIfKN6MiL4+5NBL9qLP5eGf4hiyfwv3CbQh6xhe3oyCMCBldG2Z7Sp5Wnw6clHuekfjLfX3CgMAwpIHTk/K9AkZIaOj6bqG+4/8YZ/Jyew/caJWne8wfFj9fcch/lPlwP8SUq+4IC8GXqNt7w8m4O9E3pOT6EBR71P7hxd5S+1S/cAaTTDlEk7E2YRvS9SlSrcJVgE4rf8mK+FvQ/7oH5+444slsUO0vGb/wAvSaV/nz/R8C6P1Q7ivsmoqHJJgbA/Acdj1kugUSiLRJymW/3OpBGUYTzs3W3nSZyyh2FVZdZ1GrnJzHuUjYd8yELnsfVonozWWrDZERAlt4YlV0dS9s7jmc9rZb05E4kMm2i+x8IZ6vGRxOK8RYnS2cc83CmP3LWXMODw7O017rJteFJVHbEXzkAb+uytz7ec5uDmAINEpayVpNgzReheQB2jeB4XbdZGklAxCEht0sEN4rBcZZwKkchayytcbZcBAtowcwklyMXf/SKnIA9oSF04NBLGT3RGcVlyUALLzTaaPJc6Jj1nBoBIxHsILuMVKjfzIR3NcrvFvS/dASbLsS+M7rahACA52cG/Y4Rs9qdHGGmWoa/zYXlrFF6R5OcUi4rBpFfItQ9FYjnC/wAJX7uUoF4Bbk0moAJbpkvlfNqGELA6wqwrry1JRCSDGPCtGKZIPeUw8PcYrFMXxhGTyxTgZrENX4yDvsojMEiMM8ZI9XbN/q3sTxhNnSVQnEYAxLEDCkXoiIR5zjLUf7EzJkIjWQi1SJ0qCpzcRB9LW7UWHU55kb4+XV/LC470UiJN0U1vBImJUGplspacgX++NRKcMpm2rUiQ93UPWQ/l3AMChhOgw2lE6VQdp6F0xo0PHrqiqCVPGG+/JpRQk1zhdDF6t5KyLhyIx4wnYF6Ir9qNokRDynH8XQElmpUs5wKiSNIpBjt3k0mBGA914f8AjH/zlsrNds8ri/8AL/lYVCMfeS0NqachNrkOOaWmeZwvwywgxTy0ybkkR5PvO38Y8I/cCz2cT35CnhrDNiH0wdYpxBZ/ODbpZV5eWuHC7kKAhLrbD81dorD1tinJcWxEgFSJMKmK+oumj6BxshBLeNMHymsv7yRQvAGwxqZwtj8qO5Q5KlxdM18hs+9cON8MiQNoE/lYWD0iT98ZELc5CiplScpWRpERkgbPwyHSlieWJsSRarauW+bVghL7E+sNxcUtN/GOGDVX4goohmnHaIExgj/bWTuS9IkfPSyfH2xfxXvjnI2OS3CKR0iI84uytkR/ZyGNP/PS6eMInIriYiWMO/OAfvHFtZkAlFcZu90z2SZh6wgQf38uALza4eexgW+1GPTgJ6OVg3AC82uHHzsvzeJKJCMu4qkx8JpdmNF3irSlBN3ecp/iN/NeIyQYzY6nReAiFKTQogU0cuKLQ0pOj+K+VxDyJ5noaezZkGKb1vJ5yCtFrU0DRxlyaYCjmrual8YjWZlRzqrUavKVkIFOCkaiajADELR4fLy+MguEUGrTU4OgMfgIyWLSROqY2T4N83C/D9qj8oXTyOP5y6KIpyzVUj/ni0hSs5QnO39DGoDsfOBeS4TSDU1+uvZWXPRNReCcIt9mjGNBh/UooFLQu2H51QkjT8ZPlNqToUFpNfRJQf3GMep+m3zTok2o4/TyDuCOi3r9J/XWKPLGCzLQO1yUHeIzYJKr9Lkp2ywT4EfRzVRITGW+g/a/9r1w1C9Nlb4wHmfEcqSRWhxkxxRQYLjcrecLeXjJPOyuTesIHuYcEZwsPBGDJ88ahIqFs3kc0qNS9ySmOHAZP0W1AQQ0i5xKzZpequEVgnyIqUcSbjjdXSXhDXX0xci6EkgAeQw6ieL0R4NmLVYQ7AIxCPlhySwMGwzdk80wxFpOgUxsTUbwwH7BwLTzBKYxRfME2hdo345ySlpHmQBCAqncZD7LnRxwQqJm8MatnFZZoTfEThDJRveGx9jISqF3BjsOOMKjgjQMQ2PteCdgxlAZj3mXxl2f2JTIm0cZF9wKpaoAMzxM4olVKHCYypkMexHhIhVdnZjMXqCBPGpKiKrBJNbq3ySZbkGLfJf0m38H0eQZBTZQwnTgpPu6AHIYRhiSVUKZQEfw5LwnuEjESqV8mTDRzAr9qXtM4Fzpa67kjiTvCKRsQoR0qMqo61vwkUU7c4THmToil1fQ8ZJuMWFMTHPeMoq5GcIVi8NcUHpHCPcYcfGKN13WnGMPa0gvhwjZjeciFZG0fpStx0IbAxLHOQN+6vmFq7amcP5JSW4rF2DyjGx1KLoNiYzgahyrSJ1rWsDqj4PMxLQClU5P/A+OLaCJxXLXmfAT5UcVlhlfhIupkJwsFPhXRSJg/ansIEIRNJgYbByUhu7ZnvAwRmUGiaKSw4BbgI85hb6dYYKljWVFK9KxktQgFVOXnNJgGudT4cZ4/wArNd0ig6yW8jg0py84vNTJMqvM4qycsCwdwG53kt6p7vUNTz9FwzZbac8GI6wHu1JFo2UTvKJ+kncQ3k3H7HSolMMsmMi6mTctbVxgQuCfIzk8YbYx+OBTYcYjsjZ7lO3NoLPtzIk+RvCTBMBIaU5HGRraiBkv3deA3MTVg/Hhh5oQGwCdoRsyTunKipHPlgnEAQowOkQOOb9ahkERJCd4A9z8AsRNJi5uaOZKRdkoxVKViDXs7J3iSZm3zuAeecQTdDZlHa45HE1YiNiYABmIMGc27wL7huDoW7JyGDNBf7u/DEc4CANQ5ec1+2J1WHblwlJmoAsR7yLYcKBxLsks4vCiceKDrkc5L3ggOqt5FpElOUi2o1kI72+uEuFC8iLqIIRRbjnCZUCHNUL8OsYsI7aBRqPow78V9kmMNFsrIHCdHjI3YhTSBDigO8QBPwvAannIckkVkls0txkaCMQbicOXmMLt5C8Tn/1jQ7584T7KyCCHhSev2rQWfdPuy2ILKxD6Jx4fJORAkhM+TJlWohqBaL4Aw+v8NNoAjzrIcrZ/pq7xMY9ZcE61+PWazGa2JggNnLfjJpZWUbR5RfrJfB+QaB+dcQkInu8ERrvLYjwJNOXY/wCWdNOQSkwqjJr2QFonygOJwO/DKIeNnr7WhmcLDYlliO8d+RpKwTSbcI+RjgG3c5DPgatsLihiHSABBGUlOCawBk9O38LLy4jjxuhJ8s6cCm6WuNbQeEyLt9JKuSYtNOaVhMnwVn44MI55H0Zr94zScDxSDuoGjZwFYV40QpKPxPGWY0TidmwHHmftgE8rZ9h7+harYR9pOH6fgpfZnx+ttlGuPp3f9c8dWqYG2sidZMLFpNi5a5fjDeqE1nRdk6jeHvXcRvUp6zcwJISAlYcfzkw8CJBeglLxnDoVAACJUbTqMahF4YQJNdgRPeGIpVcFf2H+MrDwq5mYqZmDDnjBZSUfCBFuBa8IyXwCN8itkYKSBewlFEDttReIJmA5Mc+146gTG/fZq96yJMXaq4iyIZrNeRMk0kd++R8ZVlaUlKwjHWWaSR3flp5nJd9NqTAuxNiJ1OC1NAMgwzYsgVasiuhxSGI6RtOsRHIhATgNm9S9uMmJGpEF8IhTQxgS341UCX2C13lEwkQLG6Zoc4cwBJQQLG0edYnykgZEZTDyrpzliEpJWhSvjfDGW5uqd5jwneaBeQRmNT2ieXB1w68A+pA+8ZCQ05kJwuZaYewhomzxjdjPSUivuWbuDgZZTiKOSnIScyE/YCFy6x2v7XDAVVo07uQ6VxoBgihbCIH2wMa3Mb8l7wYVUUZZ0hGJzvFuxYZYTnkY4coAgTHHPhi8IBpCMAALDwyjn1wJfh16rLq4Z5nhFMij0AqeZ4VlcTV2dCTvAeICikRChRPCcvytcGuz6NZ4jiOJ4JzzvBoIyTECGkn005BAFyG8/Jzs6wEgvBkNENyGZwdSALBYDId3WSW/FjXPThwjdEl0Ksl4YBIRAdBGk9KZnLztIQihINYQsLlX/QxjqLJZZUNy7nhWAjr1dhPpWTis4TOltgrcbwNYzAioau3JpQhJbJGTej5w7TobSER6A4YFxBrAMBLKMZz0oz+TCWnxjEbED0Ake3YcmYTZASVuB9iMIbPAyQEIHjIbnSiXQINJGMDPlUmBCTfb/tnf/8QAJxABAQADAQABBAICAgMAAAAAAREAITFBURBgYXEggVCRgKAwobH/2gAIAQEAAT8Q/wCsgNfvAHBjykq7+5LQI9SyKOw/2cF0LpLUG9QfuHFd2FN3RWbAXFPskWaaAqJ8iI5aIwqFJl0dHo4BoPwVWPih+f7h1qLoAnRSCJxxX0yE3RUbn0FKmPZQz9EGBdCL4T/7j7jqTLfk3gbwKJwTB9xpjRp+VsymYvB67PuBHNhWmuwyLsAYXWHdopBFAifQIB1rVZ/vhn59PIif2v3AbJqW+OU1SZAAfUCmwvkTzyp/W4nCjmG2P/SR+T7jcgaoXPtSL2aMpVH4iUfg2vUv/D5CIvwfygCVaH7Jd9VYsIEaGIL3EHzIRxkhDi2rrCCE+YM93fCIzBWQ38C5D9E4LyzlbnFyBYzB1mvd4f8AuD3pMmgkAhNluAbnjBjBUJLeUOjiB1IGqu1ANbHmHopa25vtGz0jltM8MgjC7IGzdRYBDvMkqv7QuISREVCFRBgI9cB+xDnsRoKNSdpvDVPL46nAZ2JgYFqj+x+feNAN0WaIYtWAXHCY8xEVB2jC9GDxTBQopUYux1DpBug9P47HblJS1HAQ34BFwr4VQmFAnuKYcXHQndQG9TkrcHovihmSoNRHGwtoe1wXbOxL1GBaEJFxVmgqDkFD8CLMTyAQzhqNpR21g0/jQOBhIAbpwR1tPTJnQH08bVYVwFEhMlaVAMDug2TKisiva1gUwLYrtcTbjTExtTQvuo9OJGF0rUZFV0SULjWDbIfoQyxGmVCLIPlkv3IGTghEe1jvLFwDOEwcps0Flzd5cGddGppK4NdZcxi+UgtQ4slf4WgBEGfn1jhGIUPne32hMNTSo1oEDanI4XBEVeK1SOVdoYa5rrtL1RfWBSutBLHtzCmjF5/pEk3E0jicBZdVGB8Rj84/FL+ElTzfigBgpNFZk/fXpUjhHqgVYAqmhgYHBAwNQ5AvWGxAHckcFDSzuCQadguCLhkMOnfQFoE4zKh3lJooghKlj30wrOI52QCPTS4NEMAUHalwDopn58SjULo8A9C/4pD3VwgIMNUzQRbojroqZpYED/zJM6KnKKZslIDSiLi60waq1x+MpGDJCJcEoGvuxcCSMJgNwG2CCjkJIGMKqJ0NgA5jdgaW6xgi4msnH/qKAOt7EoQY9kH0tsO0CZDk0VPpG2EAO4XqbtZENyuAHrld69z1/LZjIaMu+K032xdaWE4FN2+Hj4nhlKGjcTBZ6WTuANF8DNFzQjHgFOSzjl1PIioL3I0ViYOJelKiLYLlFx77vkQpd2WmAOBeebh4FVVDCypWNpRAjBAMxoGb5ffbHcXaYBRkesFXcMfa4mvj6eh6rgHNUPtnT+3wb8PLtF8Aht6YbAuKoGGYwFJyXHgDhS0utBoawIlVqQJ4Vb5xENomDLjo/Iyw4ThOae1/kwjG3qHX9109xqqqwkvwgxwgJ7TZKKK+IwN2notzUJKVgdCMtWYwHqRMLy3BzrtNW5AfEktgHVB0CYpYky3XrutydZxIRKW/1m+4nhcdlgtUSMbBxxDdtLhBa7cA+upP7Mb1mrPAwxtrtGp0cE2g+21ESgCmarZcoUH+rxD8HZLXfQWmQdrddyWKL+BirtNJIfnT9i4cYbSrziBI/OTJEm9WclDd9Mh55m2LKgrCdXLPiDYFk62oXzGu8P7Cb5SvcR5FJ8z3pxQmcwTv0TSTCBfMnP8AFFcGf4RtijqdMTRgQkxlaWO//OKPmhLKJCnAxE2dDl2j1Zv/ANjUQAUKBTs/mI9OPIpR0E0zeMWYoSeiUGfyC8Sqiwp4XAN6IhUTsFoyaa3BCTYIm1+gCJ/UzTNFU36erZX/AHZL0f46G9R2Aru2N7J/EQcqvgTZMZCCLqIGKbRMUkqqiUf4ubESAoAqCdvoYV0khXrAoWv+MpO1GhQbP1ZrkjJAaOcjmmkNbVqijeVZDj3MsGnCCFMtLb0JhgSIF5lVUD5liqatwjgBc9YrRS0axkVWND9qqcISf1VBHegFcRJn/QctkrUUwdatkShVjdg0xmXXR+YgEHNPIeyFQg2RgnXAIt6ZKzLZ3v8AteAsgYCN1MD+aANWwmL7sb+6DTqLDvocOlOgAsTDU94p2HiTbVhtK2hPKrcAB7g4w7B71RA5hubW+lufoll5haV+gF1O+AtZTeombIg7jDONm/YvYBOx8MQ/9Z61duAuE3i+ybBSwI3hH8VpA0Da2swQ9qg0oGL4NweFJ98EkPM2YAua/FeLY77FMWZWppU9YJLrrPokYDg0AajQ9OYHlEB0n4QvqzDaJXysDgXxndy7hNrSF2HuL+QPbq6RiEusLjkJwAVD/O1yJvCmZHROV68UBeC2Pm4SqoGRIWnN8iYJePF23U+06woKfIeKpbQRM5qeLMuepLzCsvfJIbeqAPIGWlCWfR8NbBD0baYtgnfbrA4pVDsNFOOX6bmApZ1kFOCgWsVcjGgVKwZTs+IOjqXGJz/NsMpvrjEI48/BgOgTE3HcJGkysviDpjuT8ea8ACYEUY2hN0bdLGrCzfcJ7oHwH+KdPsxfUGxHjgh+9DgpoSa6LcMiL0OWYZJsFxsstFxqA8XA5eL8AzQgCugMT5UFZQRLO9ODgg2KN94qnbpjbSee9nPwgQTAgIDzIoCTR1ihNrlVUtqu1x5lASp80SFMdxOluwTGGEdR36IDlRDlxKa2qTJoI1PUfQUDoygyEA2KSB2XjgIjrRQ5Bm4KuIJQtCJkohvwMlv3nyzt/OzVOVIy/UpDzN6BR5C2qeri2+REU0H7WEZTcB8+yA+jpgxhBiABIQF724Ro3viBaQoHUcc6Zg5yiEIIBiKCG/lOYooveRXhS4skG+CQmBlOymXU2zpXFHqAY6MUFExtNlh0kFUXRXEfiVg0sQLqn5YpKyYbUMH4O46hlqluShqu1wgqBZJ31ACOGucnAiDsDu4ZkX58ixBbelxOyyBTeBTt5zVd+dQiBPnRhJwMpNSUddUxwbCEsJsDscCAiZF9FSYKqXPKp8IiAPC1gWci0xAiaqb8cBKh9XDbLAq04AzMAg02ABG0DCIePxjQHlW5nYv+BbME8XWL03V0mQhbA0P0A/8AZCCcpDgWNbNcK2Hg1gRidrHRVIB0DiA5SApkMR1Hc4Q9fcnRZXK4U/bgAA2Cg09Mqh+2bUWFSRfXLBsBZpsbe/yuW5FjiiR0PRp/ig6bf9rJKrgkNzLIrs0MVGp74AwkIISIYscI7ADJtLSDHaLvJzVCsJgXY9nlLZALPywIUxgSfTbSOBcv6ga6Sh07GgphM6tL+rImFY1iq2FHcxBbrgJcXlCrnzpi5AOQPqJRDopKIIg4ao0z1DoD0qnUDI+cIFulNCFpjxHkKE+QoM+T9rI4kFWMEPQjASyLRgswthDAz05LMcNyEfJtYGSCVz0TAAZgrEFvZBBXHMfkoH92n5zNwa3D8yW0xjGoW8dCGC97RsyIt/QU739PZg0Q6nkIAJi0YhHRExAAvIBEYAYgLQ4ApoRS36dZiGBOxQCvW8ep0yNJRaAbUaAkov2wHbN3CEjsNIp4v0RadWJJsEFEOin0sDCJQAnMUAvWH86LxALWx0iovKz/AJzm9Py0hkqdZbgKqYX13cAbldVgWN/rwEN3cVfDCRZwYlKEqsTo4mhaLeTMImqwQdTD22BPFUGLcgVyGhSqODqYd+FjKhrxBAoVLExQvqjYNL8iX9sKarQQkRhQoVjDMDTDwZIyehAglAMBAxF5WjuiLekRyRe1H9KRNCTpk0HUVAGHhOEFa2emIXWD5tW4kSeRgrpY6HagZuBOA2wZeMfsNZtRzBbvQSHYhdOR146PAR6jpNF1jlnG6VqHV6/C42Kq9rJSMEAI1ygGuPqi94BdG8ISA/BjjENcsw+y6VnUDDrapgchYiedgA0UCY5d+WTwIVmu0gYycNGWGN+ddsUpA9Ex5ENo6eoxGQiGW7Mo3Hn3BRk2I5td2m021ksEa5FyqQOAhvHnGC9EQNOT5GJJEywpP4ZmG/D0fkQ6djqj5w2CGaEfI6EP1jkQWluPNrjEGxxsIT+GZ9gN184HYT+3KVU+Rh0LYtFYxyXHbeuqORR8rhmkBibDYrU3rIz+NAFR70TRPy23h1OgawpdG7o3Eco9F3I1QIlV3hAxzqfkGWojTG2IIRI/uBCcbw4+unnz9/JtcaBkOU+SSTobOt5L2wgUqzSFSlmJbG8l3VS2hW8wirgryww6KJ8DNXZmwxmAsd2dWYJ0MmSonJN04I414s1sHDJRonthU1KuhZiIATWpihrEg5EBABQ0xdh0gimC8NB8GsWmvmo/WUBUIcc6vdI5AmEnidG5v5hJJVvaLbVtXIsSBa+3/wBfnBiyAqqICDUDcML/ALglu3MRbQLcCeH7OGtNDgPrhi2kZKnShOFEQx3oop6I4idEWhUxRddrAgGKyI0rd09o0tjA7Qwt/GK/IiJtAkIg60wwYw1um+V/Uza1VYpyzVdY8wZCRLKTtNgsU9wi2ybRWroCGHMJo10vlEhNl/H/AGzv/8QAOBEAAgEDAwIEBQIEBAcAAAAAAQIDBBESAAUhEzEiQVFhBhQjQnEVMhZAUKEHUoCBJTNgYnDw8f/aAAgBAgEBPwD/AE1bbv8ALNvVfsG5UyQV0Q6tMyMSlRAfuW/mPMf1GCv+JG+KKihl25F2BY7pU25JxBByvYkngrr49Q7e+x/EsAtPQ1axyEd2hk5Kn24t/vpWDqrKbqQCD7H+o/4jY/wnXZd+pBj+eoNbbl+nUGX7vlor/nEf1CGX4pPxRURzQxD4b6f03GN74i1vuyv3B418dMd0qti+F4DeWrqRPOB3SCO4JP8Ac/7aACgKBYAWA/qO2/D6Ue67hvVVVGq3Gq8CuyYLDEO0aC5/6j3GkrvnevRs/RKLM6LY/VRhGWXLgnpk2B4uBpJt6VwuEzxPJEImZEDCMT+MyWta8Z/9OpqSvqtr26KciWraWGSoE6KyLxdgyJiCAdUVCaWq6dZBJUyIYlpaplDhEWNVIuSShyBJ9b6/4km5nFG+Ueoa6oiqCnTSzs1jexBFuDqofd4ZKmWPqyRGZ0jiVEOKdHwEcX5fuSdH9f4YSyXdipGMdo1yjsy8d7Zd9RR7w1SEeSRIzJ02qFSLqGJGntc4+mGqOs3Q1m3w1sjrLIyiaELH08BTZk3AyDdTTVO9SmqajaV8Zp4zkiBFRJgg6XFywW/fUlJu1ZAY6meVo+pSEIEjUMonycsGXuFAvqmffcYjWNMFLjrCGNC6NibhLixQm3PJ99H9UoOpVkyyvHJIgWbH6okqCEjU2HcMCLfjW5UVdK1E6sZpYaOcMSiFHnOABKsO551Kd/QEo8jK8jZ+FLxoJWC9MBebra97nVYd7WloflGD1LQlZiVUASAB8yD2BxK2Hm2p6feJ4y8olVpOpnHGqAHqwcI9hyEbw30ibpHR1kQlkMwkiWnkZUywKplwBbglu40G3tZRGzSlRKBE2MdpFE7BusQOB07WtbVVUbm24VMNG8pEfSxQInSCshLFmIvf01Om9GJoM5pHaJRysYjZWQ9TMgAhg3AA9tdPewkckKTM0URWMzKgdSVUPYDg25xv56jTfHeHKqmEd4gSsca3VnkzJyW9wuOttfdGmVa7qFWpUZmxVVjlxUEcDxEm5uDYdraaP4hqkENUCsd4XLIEuHilRDb2OJkH5tpm30zQ046wjymRprR2aMtIqMeOGACn3v21C29xxxpepdOjBm7IgeO2AkABXxv3N/7aH8RSTLGJmiQo/SkaNGv4nCmSw4YLidJJv8lRTSSBoYZMXMQVXCeM5RuQP8gFjfuTrbTUikp0rGkeqESNM7hRd2F2AwAHB/ld1qq6lkrngqbJHt09UkeCmzxiw5I7X51+uSCqFEaFjULJhKI2Z1C3UZKceeHub21Tb5JUSUcfyJHXhgqDizPhHUEhCTiBxbxXI9r6qt86FY9HHTiV7qqMHZQXLxxlWuthbqjsTqg3R62WdDSMiRmRQ/iKlonMbC7Ko7ji1+NQ79LMsIFEizywrUqrTWTpMnU5bH93tbVRu8cEUM3RYrLSNVqGOJAUoMT7+PS767PGgpFymd44Pq8Exy9E9Q4+D2730u/PHAsop4ZK14pryAkAPGskiqxC2K4p639tLvU5eeJNtZ2isHMZYr1Cqufs5Fm8rsfTVTu5hhpZooo5BNTSVNzKUQJGoY2JW5vfjgaXfpJWIhoHKGboI0jMgyEgiORK2HJuLX41NvkkyQSRwIiJMqS5OC4cxNIQgK8geTa/XnQLlSXVm6UbGTlpLovjGPhW799Uu4LNSz1MoSMwvMsgD5qBCxQtew48Ol+IHYuBRD6eZmJkK2WPp3KhkBJtJ2IGqLcpqyuCYKlM1O8qLlk5xkwuwsMT7aot4mkoq2tqIh0KeCOZSrXkcNAsxyFgL86G91MUm4pPTxM8DSyYrL4FhhhikYBsRkxMnAIGjvrH5mSPb3MUbuplOQH0X6bF7ITxa4xy41V7oaaWFEgEkbRpK752srOsfhFjl+6+hvc8rUYhpIwJ2hdS8hNoZSR4rL4X47cjVbvXyMs4kpi1PD+91fxk9JprBLei276XfZTLDAduk6rm7AZ2wuoyW6Am2XnbVDulRWy1LiONYvkaeqp487n6xktmQLqTiLjm2qLepagUnVpkHUMUUhSQkiSWLrDFSOVse99VO9ywSTRpQmQrM8MeLMS5jQSNwqm3fjT71Ms8UZp44kFQ8c3Wdg6wrG8gk/bazYXFidSfENQ0FW1NRR9aCGplYyyMqDoIjiwKBjfqDggaQkqMsQ/3BTkAfMX4/lZ90pI62ppKhIwsMGcruy36bC5sncjjnTV21yOruiMVOSloyZRJlhYIVyy41FUbXUPTtF0mkVulD4PEhKZ4rcceEaaq2pZOtaNp3tykReViCbCygsSCh49tCu2mNJqxZYVVv+ZKq/utF1+SBz4OdbhV7bS0TTT0yuohadITCcisIvypF1C37ngalqdtlnWnqAhnRrIJozwSCbqWFuynka2+Lbp4KpaemQwNKcy6g9XMCUE3HI8XF9ClpQyuKaIOq4hgguF9AdGioiCDSQ2KCMjpryg7L+B6aloqWaSCSWFW6KssasAVGVvI+mPGvl4BI0ogj6rWyfEZHHtc+2jS0xdZDTxZqMQ2AuAfIHUtNFLE8WIUMCLhVJF+/DAjVJQU1FGY4I+4sxPdrsX5tx3Y8DSUtNGuEdPEqWIsqACx/wDmkggjd5I4UWRzd2VQCxPqRpYYUJKRIpKhCQoF1XsPwNCio1RYxSQiNWzVQi2DD7gPXT0dI5kZ6WFmcguWRSWK9ib97aaONuWRSbW5F+O+vlaazj5eKzuHcYDxMOQx9Toxxk5FFJve5Hn20KOkURqtLCFjbOMBFAVvVfQ6jgghLmGFELm7lFClj6m2kpaaNkeOniV1XBWVACqnmwI7DUlPBKpWWCN1LZkMoIyHnz56FLTC9qaLl+qfAOX/AM3599JTU0SlI6eJEsRiqACx7iw9bajijiXCKNUT0QAD08v5WbbY55Kl2nmCVCBJolxwYAWB5UsCPY6Ozq9bPUl2QXDxMjXcSE3ZvELD0tzql2qOmrTVKBikAhj5JZizF3d/LIk6i2hA887OY6h6lqhGhN+ldSmK5ggg5EkEd2OjsFEVMQaUQFSOkGGNzD8vlci98ONV22w14tJJIhMUsDGIgFoprZKbg97Dkc6qPh+nkFV0y2VVIpmZmsVQSdU4lRcm5sLnUUKRdTD73zPAFuAPIe3/AIPc1qvIY8GVmAQMP2gAkk/k6B3FiLiNe97c/abHn30p3TCQMIeoCCh5IIy7Ht5avuIYm0JXg2N7jgXA0DuRU3WnD5f9xBH9tRtX5jrRxdI35W+Q0j7gbF4ogCpNrng2uBpW3AmUtHEFA+mObk+/PGst1ZWBjgQ4cEXY5e1z2GpDuPAiEPbljfv7aU7nZs0h4UFSpNycuxv7ajO6MsglECNg2DLc2c9u/kNH9TMQsYVl6g4sSCgHPnpjuOClFhzGWQa/Ppa2mk3NQD0Ij2LWJv72F+dBtyeAEpEk+YJF+MP786dqwoAiESBrknGxXyXv31J+pNIWjKrD9qkAuPz5aiMhU9RSGyPe3a/Hb/Wv/8QANhEAAgEDAwMDAgQFAgcAAAAAAQIDBBESAAUhEyIxFEFRMmEGFSNxQEJQgaFigBYkM1JgcJH/2gAIAQMBAT8A/wBtVdsscW00e80M7TUkh6c4YAPDMP5Tb2Psf6jLR7Ev4ehq469m3ppLPT+wF7EWtwAOb6/BjCtXd9gmN4aymZ0B8LKngjRBUlSLEGxH9R/AuX/ElHbxhNl+2B1XWNbWY/T15Lftkf6hLH+HR+HoJIpZTvxfvTm1r8/a1tfg8Db6fefxDMLRU1OYYb/zTPYgDRJJJJuTyf6jX701Vt1DtVPTinoqfuZA2RlkPl3Nh/5HRVNIaXo1Kp1cjGrtcfpsC4U4+BmBcjmxOmi2tlJDRrIschkVWbEuYuwJe9wH1FU0dPX1skIKUwSVITC7Kx5spDNkQTqrqxUQZ00yQI/UNRTqSpZ2ckGwHcMSAPjR9C9Byy+pWBbMzMxDZtdFW4tcEG/I1Au2yJBG/TRxEjSSMzi7dXuB9uE8W0PyfkGNO1QwOUl3bF7g8/NtO+1iAsqI0gTNYS0mAkZYb+/zlqpptv8AS1stKiGNFJjkJfPIz4gc8EYaWDaoxTrUrGpaKFxiz5FmiLHqc2ClraSp22mlDwQxh8KkFs3JVjFioUg+Cx41Ou0BpBTLEWCnpGV2CstxYtY8Pa+h+X1mFMBHGroj5R5fpFIQWcj7EEHVDVUiCqVl6UctTCQAzhliGRIBU+3GohszEB1QMqKF7ns7GME53PFmvbxqmG0moq/UgrAJA0QDMSUJK4gjyRcNc/GoptsicLGYyseGLyFzbpzcslzwWXm2mfb3qqWQxoIikhmQF8cwzY+9+RbVtqMZYLGCYyZBk90bpDHpi/Pfe976p4aBaOnlqVjGfUyYs3UurALiAbW+dRNtQkWYLEiLIx4Z81ZXGGIJN1I8k/fQfaizpK0YEkgZxEXKEBmK3J5+Mvtp22lFkxpoy/6lru5swRMbYm1i2Wq5dvETNSYBhUOFW7MXjuSDye0AWFrXOlfZadurTkM9pUsxexR42Yf3FwmlXaBFLMelnjEyx3ftcKjMPPIJLDUq7U7s4ECt1ZsVDMUe+RQkg9ijgW0fyRIy/SWRw65orsLcJcJc8rfIaZNnSCZUIllS6ByzKW7RZ1B/1X4t41XdA1M7UoRafqOIlQsbIpsCcrnn+F2+npKhKRZYLs9bFTs+TDsc3PA0NpQ0/qhVgQsmUZdQpLWbhhlxyvFr6n2mOBKl/WA9KWWEZKFzeEAsAMr8341BtJmpkqXmMa8swKhiFCO4Is1+emfNtVdAtLHC3qFd3EbFOLhZFDqeCfY831JtEcZkPqmaJJWgYrFd81fDhcvp++odtklkli6gDJUrTkgZC7Bjl+3Zo7QgR39S2MaI8v6fNnj6owF+77+NHZ1eUxmeVKVHhshAuVkZEZgC1wbv8W0dqixhkeuVRJcoHCg4Aso/m89vvYD51BtvVlqIpZHjMU6QW6eTZSMVFwDx40dnSNVMtYoYRdV1QBziUMgxs3PixvbUW0pG8qPMzM0ZaPFSFKdRUBcg8Hn6dfk6tfGo5A6jqE4VLO3bzybJ41PRNFURQRF3EqxMhKYk9VQwFrnnnTbKqhSar/qYCLsBuXz+oqxAF08gnVVQx01JlkzTidY2JXFRdM7KbnIffVVtsaVdJSwyHqzTPE1xZFIlMQx5Jtxo7VBJHQvFNIqzCNMmj7mkllkRSVy4UBOSDobQv6Eb1qCR1RggxJ/UXNQvcPP3tqmoBPHKzSlHV2jVML3ZUL8m4t40dqhjWqMtQ5MIlVgqAfqRgHi55Xnzql2v1UcJSoCzS/SjL226ixctf/VptojEcsvrk6aiwJxvnZji1mNvp9r6q9vhpY6dTI7Sermp5nxsP0gn0C/IGRsdVW1xwmp6c7nASSIHQcpHJ0u5geGvqDaY5UidqsIDEsj3UAKHbBeWYX8c6Ta4mhkcTPIxhR4jEoKmRnRCh5vxn8DUeywiWmE9U/SmlgjXBFLnrMyc2YgWwPIJ0wAJtfH2LCxI/hYdvqXpYKiEuWkmwjVFNswbC7eAfjQpK9EZVZwGGLWcCMx2zuWvjbnUkNfCswk6iow6kvdwwDY3NjzydLTbiU6d3EKX+qQLGoIBvcmwBDj/AO69JuMjR0xjlLL9EZPi8nS4B8d/GqKmrqiqWKGYoxlWJ5RILAym3BB7ifgedJBWxwmaEsImXuMbjwCOGCn7jg6rZK2KWBpp2EqxjAKxHTxvHYfH0820aicqUM8hQnIqWNifnXq6rj/mZeGLjvP1Hyf31HV1ESTJHKy9UhnIJDG1/f8AvrrTFFj6r9NbhVyNhfzYffQnnClBNJgTkVyNifnUc8kciyZFipBsWPt48EHVTWT1Th5X8G6geF4C8f2Uaaed2yeZ2bzdmJOmmldUR5XZF4VSxIH7DTSyMAGkYgMWFyTZj5P7nRqqkszmolLsuDMXNyvwT8aWpqUCBKiUBAQgDkYg+bfF9B3XhXIHng69RPdD15LqpRe49qniw+BoO4Fg7AWta/8AfRqali5NRKS4xclz3D4PyNPNLIFEkruFFlDMTYfa+mqJ3VleaRlY5MCxIJ+TpJpozlHK6tjjdWIOPxr1E5teeThOmO4/R/2/t9tPPO7ZvM7NcG7MSbjwdO7yHKR2Zvljc/wsVc8SQKIYy8Ll45GyyW5uRwbEaG5stLFBiHNisiuLIUtYLwbn5vqo3F56XoH6mmMr8ABQFCKi/YAak3JisUQQPAsAgdZBbqWIa5xNwRiAOfAGhvFWGEhWMyhr5lTewk62PBtbLVJXS0f0JG9pEmUOCbSR3xYWI+dQ71OhgzAtAjCJVFwWw6YyubAcXNtPI0mGX8q4jkn3J9//AEevpSqB8wwBLEe5JAAGj6MXtm3i1/35/wAaYUOSFTLgb5D449vPvq1HaxMl7nni2rUQYczFLfYEHTrSYHpPJnxw1rHTrSC+MkhIIH7i/J0Vo+wB5CSe8+w/bjVqAEEPKwy5BsONJ6Pkv1PPA4/zoii7cWk5NmB9hbyNP6EFDGZWGYyBsO0edD0Qc36hjwPvY5aUUWbZNLhxYrbj50EoSSOrIPi/+Lm2rUQlIykaLHg++X+ONKKcOSzgpjYAX8/Ok9EEs4ZpPcgkLqQIG7GBWw+fNufP+9f/2Q==;" vertex="1" parent="1">
          <mxGeometry x="554.45" y="120" width="71.11" height="40" as="geometry" />
        </mxCell>
        <mxCell id="pSzr6RmVqyNmgObaIaFh-21" value="" style="shape=actor;whiteSpace=wrap;html=1;" vertex="1" parent="1">
          <mxGeometry x="530" y="150" width="40" height="50" as="geometry" />
        </mxCell>
        <mxCell id="pSzr6RmVqyNmgObaIaFh-37" value="" style="shadow=0;dashed=0;html=1;strokeColor=none;fillColor=#4495D1;labelPosition=center;verticalLabelPosition=bottom;verticalAlign=top;align=center;outlineConnect=0;shape=mxgraph.veeam.2d.alert;" vertex="1" parent="1">
          <mxGeometry x="350" y="230" width="33.2" height="33.2" as="geometry" />
        </mxCell>
        <mxCell id="pSzr6RmVqyNmgObaIaFh-38" value="" style="shadow=0;dashed=0;html=1;strokeColor=none;fillColor=#4495D1;labelPosition=center;verticalLabelPosition=bottom;verticalAlign=top;align=center;outlineConnect=0;shape=mxgraph.veeam.2d.alert;" vertex="1" parent="1">
          <mxGeometry x="610" y="96.8" width="33.2" height="33.2" as="geometry" />
        </mxCell>
      </root>
    </mxGraphModel>
  </diagram>
  <diagram id="qqkc5hDesc1HUKNivIYE" name="Page-2">
    <mxGraphModel dx="1050" dy="538" grid="1" gridSize="10" guides="1" tooltips="1" connect="1" arrows="1" fold="1" page="1" pageScale="1" pageWidth="850" pageHeight="1100" math="0" shadow="0">
      <root>
        <mxCell id="0" />
        <mxCell id="1" parent="0" />
        <mxCell id="EQgvZN2AlB4p-8m-l4eE-1" value="&lt;font style=&quot;font-size: 20px;&quot;&gt;3&lt;/font&gt;" style="ellipse;whiteSpace=wrap;html=1;aspect=fixed;fillColor=#b0e3e6;strokeColor=#0e8088;align=right;" vertex="1" parent="1">
          <mxGeometry x="160" y="170" width="183.5" height="183.5" as="geometry" />
        </mxCell>
        <mxCell id="EQgvZN2AlB4p-8m-l4eE-2" value="&lt;div style=&quot;font-size: 20px;&quot;&gt;&lt;font style=&quot;font-size: 20px;&quot;&gt;2&lt;/font&gt;&lt;/div&gt;" style="ellipse;whiteSpace=wrap;html=1;aspect=fixed;align=right;fillStyle=auto;fontStyle=0;fontSize=20;verticalAlign=middle;fillColor=#e51400;fontColor=#ffffff;strokeColor=#B20000;" vertex="1" parent="1">
          <mxGeometry x="176.64999999999998" y="186.64999999999998" width="150.2" height="150.2" as="geometry" />
        </mxCell>
        <mxCell id="EQgvZN2AlB4p-8m-l4eE-3" value="&lt;font style=&quot;font-size: 20px;&quot;&gt;1&lt;/font&gt;" style="ellipse;whiteSpace=wrap;html=1;aspect=fixed;fillColor=#0050ef;strokeColor=#001DBC;fontColor=#ffffff;align=right;" vertex="1" parent="1">
          <mxGeometry x="191.75" y="201.75" width="120" height="120" as="geometry" />
        </mxCell>
        <mxCell id="EQgvZN2AlB4p-8m-l4eE-4" value="&lt;font style=&quot;font-size: 20px;&quot;&gt;Level 0&lt;/font&gt;" style="ellipse;whiteSpace=wrap;html=1;aspect=fixed;" vertex="1" parent="1">
          <mxGeometry x="211.75" y="221.75" width="80" height="80" as="geometry" />
        </mxCell>
        <mxCell id="lXLuxLyPWUjMoPUFntuK-1" value="&lt;font style=&quot;font-size: 20px;&quot;&gt;Privilege levels&lt;/font&gt;" style="text;html=1;align=center;verticalAlign=middle;resizable=0;points=[];autosize=1;strokeColor=none;fillColor=none;" vertex="1" parent="1">
          <mxGeometry x="171.75" y="130" width="160" height="40" as="geometry" />
        </mxCell>
      </root>
    </mxGraphModel>
  </diagram>
</mxfile>
